<svg xmlns="http://www.w3.org/2000/svg" viewBox="0 0 512 512"><\!-- Font Awesome Pro 6.4.0 by @fontawesome - https://fontawesome.com License - https://fontawesome.com/license (Commercial License) Copyright 2023 Fonticons, Inc. --><path d="M384 80h-118.4c-20.2 0-39.8 7.5-54.9 21.2l-81.8 74.9c-17.3 16-18.4 42.9-2.3 60.2s42.9 18.4 60.2 2.3l0-0c2-1.9 4-3.6 6.1-5.3l54-46.3-25 115C215 317.2 210 330.5 210 344c0 35.2 28.8 64 64 64s64-28.8 64-64c0-15.4-5.5-29.5-14.6-40.5l80.8-88.9c13.8-15.2 21.8-35.3 21.8-56.5V128h0c0-26.5-21.5-48-48-48zM134.4 86.4l-4 3.2c-31 24.2-36.7 69.6-12.5 100.6a71.93 71.93 0 0 0 53.2 23.8h0c39.8 0 72.1-32.2 72.1-72c0-14.3-4.3-27.7-11.6-38.9c14.6 12.1 25.3 27.5 30.8 44.9l31.2 99.7c-18.8-16.6-43.5-26.8-70.7-26.8h0c-58.3 0-105.6 47.3-105.6 105.6c0 8 1 15.8 2.7 23.2A56.17 56.17 0 0 1 88 352h0c-30.9 0-56-25.1-56-56c0-22.1 13-41.8 33.2-50.8L128 192V176c0-5.9-4.7-10.7-10.6-11 -34-.9-64.3 16.9-79.2 43.2C14.9 182.1 0 150.3 0 112C0 50.1 50.1 0 112 0H210.5c42.1 0 80.9 22.5 101.9 58.8C343.2 42.2 372.9 32 404 32c59.7 0 108 48.3 108 108c0 34.3-15.9 64.8-40.7 84.7c20.5-44.3 22-46.8-16.1-90.2C437.2 106.1 408 86.4 376.4 86.4H134.4z" fill="#1873af"/></svg>
